<?xml version="1.0" encoding="utf-8"?>
<!-- Generator: Adobe Illustrator 23.0.6, SVG Export Plug-In . SVG Version: 6.00 Build 0)  -->
<svg version="1.1" id="Laag_1" xmlns="http://www.w3.org/2000/svg" xmlns:xlink="http://www.w3.org/1999/xlink" x="0px" y="0px"
	 viewBox="0 0 23.92 19.49" style="enable-background:new 0 0 23.92 19.49;" xml:space="preserve">
<style type="text/css">
	.st0{fill:#EDEDED;}
	.st1{fill:none;stroke:#FFFFFF;stroke-miterlimit:10;}
	.st2{fill:url(#SVGID_3_);}
	.st3{fill:#FFFFFF;}
	.st4{fill:url(#SVGID_12_);}
	.st5{fill:url(#SVGID_13_);}
	.st6{fill:url(#SVGID_16_);}
	.st7{fill:url(#SVGID_27_);}
	.st8{fill:#D60B52;}
	.st9{opacity:0.5;fill:#FFFFFF;}
	.st10{fill:#95C11F;}
	.st11{fill:#3C3C3B;}
	.st12{fill:#F39200;}
	.st13{fill:#E6332A;}
	.st14{fill:#59C1D3;}
	.st15{fill:#343434;}
	.st16{fill:#C0A8CF;}
	.st17{fill:#662483;}
	.st18{opacity:0.3;fill:#FFFFFF;}
	.st19{fill:none;stroke:#E6007E;stroke-miterlimit:10;}
	.st20{fill:none;stroke:#E6007E;stroke-miterlimit:10;stroke-dasharray:5.0113,5.0113;}
	.st21{fill:none;stroke:url(#SVGID_56_);stroke-linecap:round;stroke-linejoin:round;stroke-miterlimit:10;}
	.st22{fill:none;stroke:url(#SVGID_57_);stroke-linecap:round;stroke-linejoin:round;stroke-miterlimit:10;}
	.st23{fill:none;stroke:#662483;stroke-miterlimit:10;}
	.st24{fill:#662483;stroke:#662483;stroke-miterlimit:10;}
	.st25{fill:#662483;stroke:#662483;stroke-linecap:round;stroke-linejoin:round;stroke-miterlimit:10;}
	.st26{fill:url(#SVGID_60_);stroke:#FFFFFF;stroke-miterlimit:10;}
	.st27{fill:none;stroke:#000000;stroke-linecap:round;stroke-linejoin:round;stroke-miterlimit:10;}
	.st28{fill:none;stroke:#000000;stroke-width:0.75;stroke-miterlimit:10;}
	.st29{fill:none;stroke:#000000;stroke-miterlimit:10;}
	.st30{opacity:0.76;}
	.st31{fill:#2D2E83;}
	.st32{fill:none;stroke:#000000;stroke-width:0.75;stroke-miterlimit:10;stroke-dasharray:0.4916,0.4916;}
	.st33{fill:#FFFFFF;stroke:#000000;stroke-miterlimit:10;}
	.st34{fill:#FFFFFF;stroke:#59C1D3;stroke-width:2;stroke-miterlimit:10;}
	.st35{fill:none;stroke:#59C1D3;stroke-miterlimit:10;}
	.st36{fill:none;stroke:#59C1D3;stroke-miterlimit:10;stroke-dasharray:5.0113,5.0113;}
	.st37{fill:none;stroke:url(#SVGID_75_);stroke-linecap:round;stroke-linejoin:round;stroke-miterlimit:10;}
	.st38{fill:none;stroke:url(#SVGID_76_);stroke-linecap:round;stroke-linejoin:round;stroke-miterlimit:10;}
	.st39{fill:#59C1D3;stroke:#59C1D3;stroke-miterlimit:10;}
	.st40{fill:#59C1D3;stroke:#59C1D3;stroke-linecap:round;stroke-linejoin:round;stroke-miterlimit:10;}
	.st41{fill:url(#SVGID_77_);stroke:#FFFFFF;stroke-miterlimit:10;}
	.st42{fill:url(#SVGID_80_);}
	.st43{fill:url(#SVGID_83_);}
	.st44{fill:url(#SVGID_106_);}
	.st45{fill:url(#SVGID_107_);}
	.st46{fill:none;stroke:url(#SVGID_110_);stroke-linecap:round;stroke-linejoin:round;stroke-miterlimit:10;}
	.st47{fill:none;stroke:url(#SVGID_111_);stroke-linecap:round;stroke-linejoin:round;stroke-miterlimit:10;}
	.st48{fill:url(#SVGID_112_);stroke:#FFFFFF;stroke-miterlimit:10;}
	.st49{fill:#F9B233;}
	.st50{fill:url(#SVGID_117_);}
	.st51{fill:url(#SVGID_118_);}
	.st52{fill:url(#SVGID_119_);}
	.st53{fill:#FFFFFF;stroke:#A3195B;stroke-width:2;stroke-miterlimit:10;}
	.st54{fill:none;stroke:#FFFFFF;stroke-linecap:round;stroke-linejoin:round;stroke-miterlimit:10;}
</style>
<path class="st1" d="M17.54,5.51h1.74c0.87,0,1.58,0.71,1.58,1.58v8.18c0,0.87-0.71,1.58-1.58,1.58H4.63
	c-0.87,0-1.58-0.71-1.58-1.58V7.09c0-0.87,0.71-1.58,1.58-1.58h1.65"/>
<line class="st1" x1="7.94" y1="5.51" x2="16.34" y2="5.51"/>
<path class="st1" d="M7.07,8.63H6.94c-0.37,0-0.66-0.3-0.66-0.66v-4.9c0-0.37,0.3-0.66,0.66-0.66h0.13c0.37,0,0.66,0.3,0.66,0.66
	v2.45v2.45C7.73,8.33,7.43,8.63,7.07,8.63z"/>
<path class="st1" d="M16.88,8.73h-0.13c-0.37,0-0.66-0.3-0.66-0.66v-4.9c0-0.37,0.3-0.66,0.66-0.66h0.13c0.37,0,0.66,0.3,0.66,0.66
	v4.9C17.54,8.44,17.25,8.73,16.88,8.73z"/>
<g>
	<path class="st3" d="M8.9,10.86H5.65c-0.23,0-0.41-0.18-0.41-0.41v-0.27c0-0.23,0.18-0.41,0.41-0.41H8.9
		c0.23,0,0.41,0.18,0.41,0.41v0.27C9.31,10.68,9.12,10.86,8.9,10.86z"/>
</g>
<g>
	<path class="st3" d="M13.4,10.86h-3.25c-0.23,0-0.41-0.18-0.41-0.41v-0.27c0-0.23,0.18-0.41,0.41-0.41h3.25
		c0.23,0,0.41,0.18,0.41,0.41v0.27C13.82,10.68,13.63,10.86,13.4,10.86z"/>
</g>
<g>
	<path class="st3" d="M17.96,10.86h-3.25c-0.23,0-0.41-0.18-0.41-0.41v-0.27c0-0.23,0.18-0.41,0.41-0.41h3.25
		c0.23,0,0.41,0.18,0.41,0.41v0.27C18.37,10.68,18.19,10.86,17.96,10.86z"/>
</g>
<g>
	<path class="st3" d="M8.9,12.99H5.65c-0.23,0-0.41-0.18-0.41-0.41v-0.27c0-0.23,0.18-0.41,0.41-0.41H8.9
		c0.23,0,0.41,0.18,0.41,0.41v0.27C9.31,12.81,9.12,12.99,8.9,12.99z"/>
</g>
<g>
	<path class="st3" d="M13.4,12.99h-3.25c-0.23,0-0.41-0.18-0.41-0.41v-0.27c0-0.23,0.18-0.41,0.41-0.41h3.25
		c0.23,0,0.41,0.18,0.41,0.41v0.27C13.82,12.81,13.63,12.99,13.4,12.99z"/>
</g>
<g>
	<path class="st3" d="M17.96,12.99h-3.25c-0.23,0-0.41-0.18-0.41-0.41v-0.27c0-0.23,0.18-0.41,0.41-0.41h3.25
		c0.23,0,0.41,0.18,0.41,0.41v0.27C18.37,12.81,18.19,12.99,17.96,12.99z"/>
</g>
<g>
	<path class="st3" d="M8.9,15.12H5.65c-0.23,0-0.41-0.18-0.41-0.41v-0.27c0-0.23,0.18-0.41,0.41-0.41H8.9
		c0.23,0,0.41,0.18,0.41,0.41v0.27C9.31,14.94,9.12,15.12,8.9,15.12z"/>
</g>
<g>
	<path class="st3" d="M13.4,15.12h-3.25c-0.23,0-0.41-0.18-0.41-0.41v-0.27c0-0.23,0.18-0.41,0.41-0.41h3.25
		c0.23,0,0.41,0.18,0.41,0.41v0.27C13.82,14.94,13.63,15.12,13.4,15.12z"/>
</g>
<g>
	<path class="st3" d="M17.96,15.12h-3.25c-0.23,0-0.41-0.18-0.41-0.41v-0.27c0-0.23,0.18-0.41,0.41-0.41h3.25
		c0.23,0,0.41,0.18,0.41,0.41v0.27C18.37,14.94,18.19,15.12,17.96,15.12z"/>
</g>
</svg>
