<?xml version="1.0" encoding="utf-8"?>
<!-- Generator: Adobe Illustrator 23.0.6, SVG Export Plug-In . SVG Version: 6.00 Build 0)  -->
<svg version="1.1" id="Laag_1" xmlns="http://www.w3.org/2000/svg" xmlns:xlink="http://www.w3.org/1999/xlink" x="0px" y="0px"
	 viewBox="0 0 73.56 28.02" style="enable-background:new 0 0 73.56 28.02;" xml:space="preserve">
<style type="text/css">
	.st0{fill:#EDEDED;}
	.st1{fill:none;stroke:#FFFFFF;stroke-miterlimit:10;}
	.st2{fill:url(#SVGID_3_);}
	.st3{fill:#FFFFFF;}
	.st4{fill:url(#SVGID_12_);}
	.st5{fill:url(#SVGID_13_);}
	.st6{fill:url(#SVGID_16_);}
	.st7{fill:url(#SVGID_27_);}
	.st8{fill:#D60B52;}
	.st9{opacity:0.5;fill:#FFFFFF;}
	.st10{fill:#95C11F;}
	.st11{fill:#3C3C3B;}
	.st12{fill:#F39200;}
	.st13{fill:#E6332A;}
	.st14{fill:#59C1D3;}
	.st15{fill:#343434;}
	.st16{fill:#C0A8CF;}
	.st17{fill:#662483;}
	.st18{opacity:0.3;fill:#FFFFFF;}
	.st19{fill:none;stroke:#E6007E;stroke-miterlimit:10;}
	.st20{fill:none;stroke:#E6007E;stroke-miterlimit:10;stroke-dasharray:5.0113,5.0113;}
	.st21{fill:none;stroke:url(#SVGID_56_);stroke-linecap:round;stroke-linejoin:round;stroke-miterlimit:10;}
	.st22{fill:none;stroke:url(#SVGID_57_);stroke-linecap:round;stroke-linejoin:round;stroke-miterlimit:10;}
	.st23{fill:none;stroke:#662483;stroke-miterlimit:10;}
	.st24{fill:#662483;stroke:#662483;stroke-miterlimit:10;}
	.st25{fill:#662483;stroke:#662483;stroke-linecap:round;stroke-linejoin:round;stroke-miterlimit:10;}
	.st26{fill:url(#SVGID_60_);stroke:#FFFFFF;stroke-miterlimit:10;}
	.st27{fill:none;stroke:#000000;stroke-linecap:round;stroke-linejoin:round;stroke-miterlimit:10;}
	.st28{fill:none;stroke:#000000;stroke-width:0.75;stroke-miterlimit:10;}
	.st29{fill:none;stroke:#000000;stroke-miterlimit:10;}
	.st30{opacity:0.76;}
	.st31{fill:#2D2E83;}
	.st32{fill:none;stroke:#000000;stroke-width:0.75;stroke-miterlimit:10;stroke-dasharray:0.4916,0.4916;}
	.st33{fill:#FFFFFF;stroke:#000000;stroke-miterlimit:10;}
	.st34{fill:#FFFFFF;stroke:#59C1D3;stroke-width:2;stroke-miterlimit:10;}
	.st35{fill:none;stroke:#59C1D3;stroke-miterlimit:10;}
	.st36{fill:none;stroke:#59C1D3;stroke-miterlimit:10;stroke-dasharray:5.0113,5.0113;}
	.st37{fill:none;stroke:url(#SVGID_75_);stroke-linecap:round;stroke-linejoin:round;stroke-miterlimit:10;}
	.st38{fill:none;stroke:url(#SVGID_76_);stroke-linecap:round;stroke-linejoin:round;stroke-miterlimit:10;}
	.st39{fill:#59C1D3;stroke:#59C1D3;stroke-miterlimit:10;}
	.st40{fill:#59C1D3;stroke:#59C1D3;stroke-linecap:round;stroke-linejoin:round;stroke-miterlimit:10;}
	.st41{fill:url(#SVGID_77_);stroke:#FFFFFF;stroke-miterlimit:10;}
	.st42{fill:url(#SVGID_80_);}
	.st43{fill:url(#SVGID_83_);}
	.st44{fill:url(#SVGID_106_);}
	.st45{fill:url(#SVGID_107_);}
	.st46{fill:none;stroke:url(#SVGID_110_);stroke-linecap:round;stroke-linejoin:round;stroke-miterlimit:10;}
	.st47{fill:none;stroke:url(#SVGID_111_);stroke-linecap:round;stroke-linejoin:round;stroke-miterlimit:10;}
	.st48{fill:url(#SVGID_112_);stroke:#FFFFFF;stroke-miterlimit:10;}
	.st49{fill:#F9B233;}
	.st50{fill:url(#SVGID_117_);}
	.st51{fill:url(#SVGID_118_);}
	.st52{fill:url(#SVGID_119_);}
	.st53{fill:#FFFFFF;stroke:#A3195B;stroke-width:2;stroke-miterlimit:10;}
</style>
<g>
	<defs>
		<rect id="SVGID_98_" x="-284.23" y="24.29" width="191.05" height="414.8"/>
	</defs>
	<clipPath id="SVGID_2_">
		<use xlink:href="#SVGID_98_"  style="overflow:visible;"/>
	</clipPath>
</g>
<g>
	<path class="st3" d="M17.02,23.81c-1.21-1.15-2.42-2.3-3.63-3.46c-1.07-1.02-2.19-2.01-3.18-3.1c-0.88-0.96-1.68-2.05-2-3.33
		c-0.33-1.29-0.17-2.69,0.32-3.91c0.96-2.38,3.23-3.99,5.7-4.5c0.65-0.13,1.35-0.2,1.99-0.13c0.36,0.04,0.65,0.1,0.95,0.2
		c0.06,0.02,0.11,0.04,0.17,0.06c0.01,0,0.26,0.11,0.1,0.04c0.15,0.07,0.3,0.15,0.44,0.23c0.16,0.09,0.11,0.06,0.27,0.19
		c0.12,0.09,0.23,0.19,0.34,0.3c0.1,0.1,0.35,0.41,0.45,0.59c0.33,0.56,0.44,1.21,0.39,1.85c-0.11,1.55-1.1,2.96-2.04,4.13
		c-1.04,1.3-2.21,2.48-3.49,3.54c-0.3,0.25,0.11,0.69,0.33,0.81c0.34,0.18,0.78,0.26,1.09-0.01c1.23-1.02,2.36-2.15,3.37-3.39
		c0.96-1.18,1.92-2.52,2.24-4.04c0.33-1.53-0.12-2.99-1.25-4.07c-1.18-1.14-2.85-1.62-4.46-1.61c-2.87,0.03-5.91,1.46-7.49,3.91
		c-0.79,1.23-1.23,2.64-1.23,4.1C6.43,13.76,7,15.17,7.88,16.4c1.03,1.44,2.41,2.63,3.68,3.85c1.45,1.38,2.9,2.77,4.35,4.15
		c0.27,0.25,0.81,0.39,1.14,0.2C17.42,24.4,17.25,24.03,17.02,23.81L17.02,23.81z"/>
</g>
<g>
	<path class="st3" d="M12.98,7.61c-1.17,0.72-2.1,1.85-2.58,3.15c-0.24,0.64-0.39,1.35-0.22,2.02c0.2,0.78,0.92,1.32,1.68,1.52
		c1.42,0.38,2.91-0.43,3.89-1.42c0.86-0.87,1.65-2.17,1.42-3.44c-0.17-0.91-0.88-1.58-1.76-1.81C14.51,7.39,13.64,7.65,12.82,8
		c-0.35,0.15-0.21,0.52,0.02,0.72c0.26,0.24,0.77,0.45,1.12,0.3c0.46-0.2,1.03-0.4,1.42-0.38c-0.08,0,0.16,0.07,0.01,0
		c-0.04-0.02-0.1-0.08,0.03,0.02c-0.14-0.12,0.03,0.07-0.01-0.01c-0.05-0.08,0.07,0.1,0.07,0.09c-0.02-0.04,0.07,0.15,0.08,0.2
		c0.03,0.1,0.05,0.2,0.06,0.31c0.08,0.98-0.48,1.94-1.13,2.64c-0.36,0.39-0.79,0.74-1.25,1c-0.23,0.13-0.47,0.24-0.72,0.32
		c-0.09,0.03-0.18,0.05-0.27,0.07c-0.14,0.02-0.26,0.02-0.33,0.02c-0.04,0-0.13,0.02-0.02,0c-0.02-0.01-0.05-0.01-0.07-0.02
		c0.08,0.03,0.09,0.03,0.03,0.01c-0.11-0.05,0.07,0.05,0.07,0.06c-0.01,0-0.09-0.09-0.04-0.03c-0.13-0.17-0.18-0.35-0.2-0.58
		c-0.03-0.51,0.12-1.01,0.31-1.48c0.47-1.16,1.3-2.12,2.36-2.78c0.33-0.2-0.12-0.66-0.3-0.77C13.73,7.51,13.31,7.4,12.98,7.61
		L12.98,7.61z"/>
</g>
<g>
	<path class="st3" d="M9.56,4.04c0.08,1.21,0.32,2.41,0.73,3.56c0.03,0.1,0.25,0.2,0.32,0.24c0.19,0.1,0.4,0.18,0.6,0.23
		c0.09,0.02,0.71,0.18,0.63-0.04c-0.39-1.11-0.63-2.26-0.71-3.44c-0.01-0.1-0.11-0.16-0.19-0.21c-0.16-0.11-0.36-0.19-0.54-0.25
		C10.36,4.1,9.55,3.87,9.56,4.04L9.56,4.04z"/>
</g>
<g>
	<path class="st3" d="M14.25,2.9c0.04,1.17,0.34,2.32,0.88,3.36c0.04,0.08,0.17,0.1,0.24,0.12c0.19,0.05,0.39,0.07,0.59,0.08
		c0.2,0.01,0.4,0.02,0.59,0c0.03,0,0.28-0.03,0.25-0.08c-0.54-1.04-0.84-2.19-0.88-3.36c0-0.07-0.21-0.11-0.24-0.12
		c-0.19-0.05-0.39-0.07-0.59-0.08C15.01,2.82,14.24,2.76,14.25,2.9L14.25,2.9z"/>
</g>
<g>
	<path class="st3" d="M13.92,15.2c-0.1,0.67-0.15,1.34-0.14,2.02c0,0.23,0.08,0.39,0.26,0.53c0.19,0.15,0.47,0.24,0.71,0.21
		c1.02-0.16,2.03-0.38,3.01-0.69c0.33-0.1,0.63-0.45,0.41-0.8c-0.22-0.34-0.72-0.49-1.1-0.37c-0.45,0.14-0.91,0.27-1.37,0.37
		c-0.23,0.05-0.45,0.1-0.68,0.15c-0.11,0.02-0.23,0.04-0.34,0.06c-0.17,0.03,0.15-0.02,0,0c-0.07,0.01-0.14,0.02-0.21,0.03
		c0.32,0.24,0.65,0.49,0.97,0.73c-0.01-0.68,0.04-1.35,0.14-2.02c0.06-0.4-0.4-0.69-0.75-0.73C14.47,14.66,13.98,14.78,13.92,15.2
		L13.92,15.2z"/>
</g>
<g>
	<path class="st3" d="M26.14,7.81h4.31c0.47,0,0.92,0.04,1.36,0.13c0.44,0.11,0.88,0.35,1.32,0.7c0.38,0.27,0.68,0.65,0.91,1.14
		c0.25,0.48,0.37,1.05,0.37,1.7c0,0.88-0.31,1.69-0.93,2.41c-0.64,0.76-1.57,1.15-2.79,1.18h-2.74v4.65h-1.81V7.81z M27.95,13.36
		h2.67c0.67-0.01,1.17-0.22,1.51-0.62c0.32-0.39,0.48-0.83,0.48-1.31c0-0.4-0.07-0.73-0.2-1c-0.14-0.25-0.33-0.44-0.57-0.58
		c-0.37-0.23-0.8-0.35-1.29-0.33h-2.61V13.36z"/>
	<path class="st3" d="M35.91,7.81h1.71v9.72c0,0.39,0.21,0.58,0.64,0.58h0.59v1.61h-0.76c-0.62,0-1.13-0.16-1.54-0.47
		c-0.42-0.32-0.64-0.85-0.64-1.59V7.81z"/>
	<path class="st3" d="M44.67,18.97h-0.03c-0.16,0.29-0.4,0.5-0.74,0.64c-0.33,0.14-0.78,0.21-1.36,0.21
		c-0.95-0.01-1.68-0.26-2.19-0.75c-0.54-0.48-0.81-1.09-0.81-1.84c0-0.71,0.23-1.3,0.7-1.77c0.47-0.48,1.15-0.72,2.06-0.74h2.36
		v-0.89c0.01-0.75-0.57-1.11-1.74-1.09c-0.42,0-0.76,0.04-1,0.13c-0.26,0.1-0.46,0.28-0.6,0.52l-1.34-1.02
		c0.65-0.85,1.6-1.26,2.87-1.24c1.07-0.01,1.92,0.19,2.56,0.6c0.64,0.42,0.96,1.15,0.97,2.19v5.79h-1.71V18.97z M44.67,16.12h-2.04
		c-0.99,0.02-1.48,0.36-1.47,1.02c0,0.29,0.13,0.53,0.38,0.74c0.24,0.22,0.65,0.33,1.22,0.33c0.71,0.01,1.22-0.07,1.51-0.25
		c0.27-0.18,0.4-0.59,0.4-1.23V16.12z"/>
	<path class="st3" d="M48.58,11.24h1.71v0.9h0.03c0.56-0.67,1.3-1,2.21-1c0.7,0,1.35,0.25,1.93,0.74c0.58,0.5,0.88,1.24,0.91,2.21
		v5.64h-1.71v-5.05c0-0.59-0.16-1.05-0.47-1.36c-0.31-0.32-0.71-0.47-1.2-0.47s-0.89,0.16-1.21,0.47c-0.32,0.31-0.48,0.76-0.48,1.36
		v5.05h-1.71V11.24z"/>
	<path class="st3" d="M57.62,7.81h1.71v1.71h-1.71V7.81z M57.62,11.24h1.71v8.48h-1.71V11.24z"/>
	<path class="st3" d="M61.68,8.66h1.71v2.58h1.24v1.3h-1.24v4.94c-0.01,0.43,0.19,0.64,0.6,0.63h0.64v1.61h-0.89
		c-0.6,0-1.09-0.19-1.47-0.56c-0.39-0.35-0.59-0.87-0.59-1.54v-5.09h-0.85v-1.3h0.85V8.66z"/>
</g>
</svg>
